<svg xmlns="http://www.w3.org/2000/svg" xmlns:xlink="http://www.w3.org/1999/xlink" width="840" height="385.65"><rect width="840" height="385.65" rx="5" ry="5" class="a"/><svg y="0%" x="0%"><circle cx="20" cy="20" r="6" fill="#ff5f58"/><circle cx="40" cy="20" r="6" fill="#ffbd2e"/><circle cx="60" cy="20" r="6" fill="#18c132"/></svg><svg height="325.65" viewBox="0 0 80 32.565" width="800" x="15" xmlns="http://www.w3.org/2000/svg" xmlns:xlink="http://www.w3.org/1999/xlink" y="50"><style>@keyframes m{0%{transform:translateX(0)}.02%{transform:translateX(-80px)}.1%{transform:translateX(-160px)}.11%{transform:translateX(-320px)}3.16%{transform:translateX(-400px)}3.95%{transform:translateX(-480px)}4.4%{transform:translateX(-560px)}5.49%{transform:translateX(-640px)}5.83%{transform:translateX(-720px)}6.33%{transform:translateX(-800px)}7.13%{transform:translateX(-880px)}7.74%{transform:translateX(-960px)}8.4%{transform:translateX(-1120px)}8.41%{transform:translateX(-1200px)}20.97%{transform:translateX(-1520px)}21.02%{transform:translateX(-1680px)}21.04%{transform:translateX(-1760px)}21.13%{transform:translateX(-2000px)}27.19%{transform:translateX(-2080px)}27.83%{transform:translateX(-2160px)}28.47%{transform:translateX(-2240px)}30.86%{transform:translateX(-2320px)}31.31%{transform:translateX(-2400px)}31.96%{transform:translateX(-2480px)}32.77%{transform:translateX(-2560px)}33.47%{transform:translateX(-2640px)}33.81%{transform:translateX(-2720px)}34.21%{transform:translateX(-2800px)}34.58%{transform:translateX(-2880px)}35.14%{transform:translateX(-2960px)}35.94%{transform:translateX(-3040px)}36.37%{transform:translateX(-3120px)}36.69%{transform:translateX(-3200px)}37.12%{transform:translateX(-3280px)}37.64%{transform:translateX(-3360px)}38.95%{transform:translateX(-3440px)}39.4%{transform:translateX(-3520px)}39.97%{transform:translateX(-3600px)}40.74%{transform:translateX(-3680px)}40.75%{transform:translateX(-3840px)}53.96%{transform:translateX(-3920px)}54.02%{transform:translateX(-4080px)}54.04%{transform:translateX(-4160px)}54.13%{transform:translateX(-4400px)}58.49%{transform:translateX(-4480px)}61.92%{transform:translateX(-4560px)}62.58%{transform:translateX(-4640px)}64.02%{transform:translateX(-4720px)}64.14%{transform:translateX(-4800px)}64.77%{transform:translateX(-4880px)}66.65%{transform:translateX(-4960px)}67.37%{transform:translateX(-5040px)}67.81%{transform:translateX(-5120px)}68.28%{transform:translateX(-5200px)}71.04%{transform:translateX(-5280px)}71.62%{transform:translateX(-5360px)}72.3%{transform:translateX(-5440px)}73.05%{transform:translateX(-5520px)}73.42%{transform:translateX(-5600px)}73.89%{transform:translateX(-5680px)}74.3%{transform:translateX(-5760px)}75.42%{transform:translateX(-5840px)}75.96%{transform:translateX(-5920px)}76.4%{transform:translateX(-6000px)}78.46%{transform:translateX(-6160px)}78.47%{transform:translateX(-6240px)}85.41%{transform:translateX(-6320px)}85.46%{transform:translateX(-6480px)}85.48%{transform:translateX(-6560px)}85.56%{transform:translateX(-6800px)}to{transform:translateX(-6880px)}}.a{fill:#282d35}.g,.h,.i{white-space:pre}.g{fill:#b9bfca;font-weight:700}.h,.i{fill:#b9c0cb}.i{fill:#e88388}</style><g font-family="Monaco,Consolas,Menlo,'Bitstream Vera Sans Mono','Powerline Symbols',monospace" font-size="1.67"><defs><symbol id="1"><text y="1.67" style="white-space:pre" fill="#71bef2" font-weight="700">~</text></symbol><symbol id="2"><text y="1.67" class="g">%</text></symbol><symbol id="3"><text y="1.67" class="g">%</text><text x="2.004" y="1.67" class="h">b</text></symbol><symbol id="4"><text y="1.67" class="g">%</text><text x="2.004" y="1.67" class="h">bo</text></symbol><symbol id="5"><text y="1.67" class="g">%</text><text x="2.004" y="1.67" class="h">box</text></symbol><symbol id="6"><text y="1.67" class="g">%</text><text x="2.004" y="1.67" class="h">boxe</text></symbol><symbol id="7"><text y="1.67" class="g">%</text><text x="2.004" y="1.67" class="h">boxes</text></symbol><symbol id="8"><text y="1.67" class="g">%</text><text x="2.004" y="1.67" class="h">boxes</text><text x="8.016" y="1.67" class="h">ls</text></symbol><symbol id="9"><text y="1.67" class="g">steambox</text><text x="8.016" y="1.67" class="h">:</text><text x="10.02" y="1.67" class="i">stopped</text></symbol><symbol id="10"><text x="2.004" y="1.67" class="h">Name:</text><text x="8.016" y="1.67" class="h">Steam</text><text x="14.028" y="1.67" class="h">Box</text></symbol><symbol id="11"><text y="1.67" class="g">torrentbox</text><text x="10.02" y="1.67" class="h">:</text><text x="12.024" y="1.67" style="white-space:pre" fill="#a8cc8c">running</text></symbol><symbol id="12"><text x="2.004" y="1.67" class="h">Name:</text><text x="8.016" y="1.67" class="h">Torrent</text><text x="16.032" y="1.67" class="h">Box</text></symbol><symbol id="13"><text x="2.004" y="1.67" class="h">DNS:</text><text x="7.014" y="1.67" class="h">ec2-54-149-102-61.us-west-2.compute.amazonaws.com</text></symbol><symbol id="14"><text x="2.004" y="1.67" class="h">IP:</text><text x="6.012" y="1.67" class="h">54.149.102.61</text></symbol><symbol id="15"><text y="1.67" class="g">%</text><text x="2.004" y="1.67" class="h">boxes</text><text x="8.016" y="1.67" class="h">s</text></symbol><symbol id="16"><text y="1.67" class="g">%</text><text x="2.004" y="1.67" class="h">boxes</text><text x="8.016" y="1.67" class="h">start</text></symbol><symbol id="17"><text y="1.67" class="g">%</text><text x="2.004" y="1.67" class="h">boxes</text><text x="8.016" y="1.67" class="h">start</text><text x="14.028" y="1.67" class="h">steambox</text></symbol><symbol id="18"><text x="2.004" y="1.67" class="g">steambox</text><text x="11.022" y="1.67" class="h">(i-098e8d30d5e399b03):</text><text x="34.068" y="1.67" class="i">stopped</text><text x="42.084" y="1.67" class="h">-&gt;</text><text x="45.09" y="1.67" style="white-space:pre" fill="#dbab79">pending</text></symbol><symbol id="19"><text y="1.67" class="g">%</text><text x="2.004" y="1.67" class="h">boxes</text><text x="8.016" y="1.67" class="h">ssh</text></symbol><symbol id="20"><text y="1.67" class="g">%</text><text x="2.004" y="1.67" class="h">boxes</text><text x="8.016" y="1.67" class="h">ssh</text><text x="12.024" y="1.67" class="h">torrentbox</text></symbol><symbol id="21"><text y="1.67" class="h">ssh</text><text x="4.008" y="1.67" class="h">-i</text><text x="7.014" y="1.67" class="h">/Users/dwmkerr/repos/github/dwmkerr/dwmkerr/tf-aws-dwmkerr/dwmkerr_aws_ke</text></symbol><symbol id="22"><text y="1.67" class="h">y.pem</text><text x="6.012" y="1.67" class="h">ec2-user@ec2-54-149-102-61.us-west-2.compute.amazonaws.com</text></symbol><symbol id="a"><path fill="transparent" d="M0 0h80v15H0z"/></symbol></defs><path class="a" d="M0 0h80v32.565H0z"/><g style="animation-duration:19.600768s;animation-iteration-count:infinite;animation-name:m;animation-timing-function:steps(1,end)"><svg width="6960"><svg><use xlink:href="#a"/></svg><svg x="80"><use xlink:href="#a"/></svg><svg x="160"><use xlink:href="#a"/><use xlink:href="#1" y="2.171"/><use xlink:href="#2" y="4.342"/></svg><svg x="240"><use xlink:href="#a"/><use xlink:href="#1" y="2.171"/><use xlink:href="#2" y="4.342"/></svg><svg x="320"><use xlink:href="#a"/><use xlink:href="#1" y="2.171"/><use xlink:href="#2" y="4.342"/></svg><svg x="400"><use xlink:href="#a"/><use xlink:href="#1" y="2.171"/><use xlink:href="#3" y="4.342"/></svg><svg x="480"><use xlink:href="#a"/><use xlink:href="#1" y="2.171"/><use xlink:href="#4" y="4.342"/></svg><svg x="560"><use xlink:href="#a"/><use xlink:href="#1" y="2.171"/><use xlink:href="#5" y="4.342"/></svg><svg x="640"><use xlink:href="#a"/><use xlink:href="#1" y="2.171"/><use xlink:href="#6" y="4.342"/></svg><svg x="720"><use xlink:href="#a"/><use xlink:href="#1" y="2.171"/><use xlink:href="#7" y="4.342"/></svg><svg x="800"><use xlink:href="#a"/><use xlink:href="#1" y="2.171"/><use xlink:href="#7" y="4.342"/></svg><svg x="880"><use xlink:href="#a"/><use xlink:href="#1" y="2.171"/><text y="6.012" class="g">%</text><text x="2.004" y="6.012" class="h">boxes</text><text x="8.016" y="6.012" class="h">l</text></svg><svg x="960"><use xlink:href="#a"/><use xlink:href="#1" y="2.171"/><use xlink:href="#8" y="4.342"/></svg><svg x="1040"><use xlink:href="#a"/><use xlink:href="#1" y="2.171"/><use xlink:href="#8" y="4.342"/></svg><svg x="1120"><use xlink:href="#a"/><use xlink:href="#1" y="2.171"/><use xlink:href="#8" y="4.342"/></svg><svg x="1200"><use xlink:href="#a"/><use xlink:href="#1" y="2.171"/><use xlink:href="#8" y="4.342"/></svg><svg x="1280"><use xlink:href="#a"/><use xlink:href="#1" y="2.171"/><use xlink:href="#8" y="4.342"/><use xlink:href="#9" y="6.513"/></svg><svg x="1360"><use xlink:href="#a"/><use xlink:href="#1" y="2.171"/><use xlink:href="#8" y="4.342"/><use xlink:href="#9" y="6.513"/><use xlink:href="#10" y="8.684"/></svg><svg x="1440"><use xlink:href="#a"/><use xlink:href="#1" y="2.171"/><use xlink:href="#8" y="4.342"/><use xlink:href="#9" y="6.513"/><use xlink:href="#10" y="8.684"/><use xlink:href="#11" y="10.855"/><use xlink:href="#12" y="13.026"/><use xlink:href="#13" y="15.197"/></svg><svg x="1520"><use xlink:href="#a"/><use xlink:href="#1" y="2.171"/><use xlink:href="#8" y="4.342"/><use xlink:href="#9" y="6.513"/><use xlink:href="#10" y="8.684"/><use xlink:href="#11" y="10.855"/><use xlink:href="#12" y="13.026"/><use xlink:href="#13" y="15.197"/><use xlink:href="#14" y="17.368"/></svg><svg x="1600"><use xlink:href="#a"/><use xlink:href="#1" y="2.171"/><use xlink:href="#8" y="4.342"/><use xlink:href="#9" y="6.513"/><use xlink:href="#10" y="8.684"/><use xlink:href="#11" y="10.855"/><use xlink:href="#12" y="13.026"/><use xlink:href="#13" y="15.197"/><use xlink:href="#14" y="17.368"/></svg><svg x="1680"><use xlink:href="#a"/><use xlink:href="#1" y="2.171"/><use xlink:href="#8" y="4.342"/><use xlink:href="#9" y="6.513"/><use xlink:href="#10" y="8.684"/><use xlink:href="#11" y="10.855"/><use xlink:href="#12" y="13.026"/><use xlink:href="#13" y="15.197"/><use xlink:href="#14" y="17.368"/></svg><svg x="1760"><use xlink:href="#a"/><use xlink:href="#1" y="2.171"/><use xlink:href="#8" y="4.342"/><use xlink:href="#9" y="6.513"/><use xlink:href="#10" y="8.684"/><use xlink:href="#11" y="10.855"/><use xlink:href="#12" y="13.026"/><use xlink:href="#13" y="15.197"/><use xlink:href="#14" y="17.368"/></svg><svg x="1840"><use xlink:href="#a"/><use xlink:href="#1" y="2.171"/><use xlink:href="#8" y="4.342"/><use xlink:href="#9" y="6.513"/><use xlink:href="#10" y="8.684"/><use xlink:href="#11" y="10.855"/><use xlink:href="#12" y="13.026"/><use xlink:href="#13" y="15.197"/><use xlink:href="#14" y="17.368"/><use xlink:href="#1" y="21.71"/><use xlink:href="#2" y="23.881"/></svg><svg x="1920"><use xlink:href="#a"/><use xlink:href="#1" y="2.171"/><use xlink:href="#8" y="4.342"/><use xlink:href="#9" y="6.513"/><use xlink:href="#10" y="8.684"/><use xlink:href="#11" y="10.855"/><use xlink:href="#12" y="13.026"/><use xlink:href="#13" y="15.197"/><use xlink:href="#14" y="17.368"/><use xlink:href="#1" y="21.71"/><use xlink:href="#2" y="23.881"/></svg><svg x="2000"><use xlink:href="#a"/><use xlink:href="#1" y="2.171"/><use xlink:href="#8" y="4.342"/><use xlink:href="#9" y="6.513"/><use xlink:href="#10" y="8.684"/><use xlink:href="#11" y="10.855"/><use xlink:href="#12" y="13.026"/><use xlink:href="#13" y="15.197"/><use xlink:href="#14" y="17.368"/><use xlink:href="#1" y="21.71"/><use xlink:href="#2" y="23.881"/></svg><svg x="2080"><use xlink:href="#a"/><use xlink:href="#1" y="2.171"/><use xlink:href="#8" y="4.342"/><use xlink:href="#9" y="6.513"/><use xlink:href="#10" y="8.684"/><use xlink:href="#11" y="10.855"/><use xlink:href="#12" y="13.026"/><use xlink:href="#13" y="15.197"/><use xlink:href="#14" y="17.368"/><use xlink:href="#1" y="21.71"/><use xlink:href="#3" y="23.881"/></svg><svg x="2160"><use xlink:href="#a"/><use xlink:href="#1" y="2.171"/><use xlink:href="#8" y="4.342"/><use xlink:href="#9" y="6.513"/><use xlink:href="#10" y="8.684"/><use xlink:href="#11" y="10.855"/><use xlink:href="#12" y="13.026"/><use xlink:href="#13" y="15.197"/><use xlink:href="#14" y="17.368"/><use xlink:href="#1" y="21.71"/><use xlink:href="#4" y="23.881"/></svg><svg x="2240"><use xlink:href="#a"/><use xlink:href="#1" y="2.171"/><use xlink:href="#8" y="4.342"/><use xlink:href="#9" y="6.513"/><use xlink:href="#10" y="8.684"/><use xlink:href="#11" y="10.855"/><use xlink:href="#12" y="13.026"/><use xlink:href="#13" y="15.197"/><use xlink:href="#14" y="17.368"/><use xlink:href="#1" y="21.71"/><use xlink:href="#5" y="23.881"/></svg><svg x="2320"><use xlink:href="#a"/><use xlink:href="#1" y="2.171"/><use xlink:href="#8" y="4.342"/><use xlink:href="#9" y="6.513"/><use xlink:href="#10" y="8.684"/><use xlink:href="#11" y="10.855"/><use xlink:href="#12" y="13.026"/><use xlink:href="#13" y="15.197"/><use xlink:href="#14" y="17.368"/><use xlink:href="#1" y="21.71"/><use xlink:href="#6" y="23.881"/></svg><svg x="2400"><use xlink:href="#a"/><use xlink:href="#1" y="2.171"/><use xlink:href="#8" y="4.342"/><use xlink:href="#9" y="6.513"/><use xlink:href="#10" y="8.684"/><use xlink:href="#11" y="10.855"/><use xlink:href="#12" y="13.026"/><use xlink:href="#13" y="15.197"/><use xlink:href="#14" y="17.368"/><use xlink:href="#1" y="21.71"/><use xlink:href="#7" y="23.881"/></svg><svg x="2480"><use xlink:href="#a"/><use xlink:href="#1" y="2.171"/><use xlink:href="#8" y="4.342"/><use xlink:href="#9" y="6.513"/><use xlink:href="#10" y="8.684"/><use xlink:href="#11" y="10.855"/><use xlink:href="#12" y="13.026"/><use xlink:href="#13" y="15.197"/><use xlink:href="#14" y="17.368"/><use xlink:href="#1" y="21.71"/><use xlink:href="#7" y="23.881"/></svg><svg x="2560"><use xlink:href="#a"/><use xlink:href="#1" y="2.171"/><use xlink:href="#8" y="4.342"/><use xlink:href="#9" y="6.513"/><use xlink:href="#10" y="8.684"/><use xlink:href="#11" y="10.855"/><use xlink:href="#12" y="13.026"/><use xlink:href="#13" y="15.197"/><use xlink:href="#14" y="17.368"/><use xlink:href="#1" y="21.71"/><use xlink:href="#15" y="23.881"/></svg><svg x="2640"><use xlink:href="#a"/><use xlink:href="#1" y="2.171"/><use xlink:href="#8" y="4.342"/><use xlink:href="#9" y="6.513"/><use xlink:href="#10" y="8.684"/><use xlink:href="#11" y="10.855"/><use xlink:href="#12" y="13.026"/><use xlink:href="#13" y="15.197"/><use xlink:href="#14" y="17.368"/><use xlink:href="#1" y="21.71"/><text y="25.551" class="g">%</text><text x="2.004" y="25.551" class="h">boxes</text><text x="8.016" y="25.551" class="h">st</text></svg><svg x="2720"><use xlink:href="#a"/><use xlink:href="#1" y="2.171"/><use xlink:href="#8" y="4.342"/><use xlink:href="#9" y="6.513"/><use xlink:href="#10" y="8.684"/><use xlink:href="#11" y="10.855"/><use xlink:href="#12" y="13.026"/><use xlink:href="#13" y="15.197"/><use xlink:href="#14" y="17.368"/><use xlink:href="#1" y="21.71"/><text y="25.551" class="g">%</text><text x="2.004" y="25.551" class="h">boxes</text><text x="8.016" y="25.551" class="h">sta</text></svg><svg x="2800"><use xlink:href="#a"/><use xlink:href="#1" y="2.171"/><use xlink:href="#8" y="4.342"/><use xlink:href="#9" y="6.513"/><use xlink:href="#10" y="8.684"/><use xlink:href="#11" y="10.855"/><use xlink:href="#12" y="13.026"/><use xlink:href="#13" y="15.197"/><use xlink:href="#14" y="17.368"/><use xlink:href="#1" y="21.71"/><text y="25.551" class="g">%</text><text x="2.004" y="25.551" class="h">boxes</text><text x="8.016" y="25.551" class="h">star</text></svg><svg x="2880"><use xlink:href="#a"/><use xlink:href="#1" y="2.171"/><use xlink:href="#8" y="4.342"/><use xlink:href="#9" y="6.513"/><use xlink:href="#10" y="8.684"/><use xlink:href="#11" y="10.855"/><use xlink:href="#12" y="13.026"/><use xlink:href="#13" y="15.197"/><use xlink:href="#14" y="17.368"/><use xlink:href="#1" y="21.71"/><use xlink:href="#16" y="23.881"/></svg><svg x="2960"><use xlink:href="#a"/><use xlink:href="#1" y="2.171"/><use xlink:href="#8" y="4.342"/><use xlink:href="#9" y="6.513"/><use xlink:href="#10" y="8.684"/><use xlink:href="#11" y="10.855"/><use xlink:href="#12" y="13.026"/><use xlink:href="#13" y="15.197"/><use xlink:href="#14" y="17.368"/><use xlink:href="#1" y="21.71"/><use xlink:href="#16" y="23.881"/></svg><svg x="3040"><use xlink:href="#a"/><use xlink:href="#1" y="2.171"/><use xlink:href="#8" y="4.342"/><use xlink:href="#9" y="6.513"/><use xlink:href="#10" y="8.684"/><use xlink:href="#11" y="10.855"/><use xlink:href="#12" y="13.026"/><use xlink:href="#13" y="15.197"/><use xlink:href="#14" y="17.368"/><use xlink:href="#1" y="21.71"/><text y="25.551" class="g">%</text><text x="2.004" y="25.551" class="h">boxes</text><text x="8.016" y="25.551" class="h">start</text><text x="14.028" y="25.551" class="h">s</text></svg><svg x="3120"><use xlink:href="#a"/><use xlink:href="#1" y="2.171"/><use xlink:href="#8" y="4.342"/><use xlink:href="#9" y="6.513"/><use xlink:href="#10" y="8.684"/><use xlink:href="#11" y="10.855"/><use xlink:href="#12" y="13.026"/><use xlink:href="#13" y="15.197"/><use xlink:href="#14" y="17.368"/><use xlink:href="#1" y="21.71"/><text y="25.551" class="g">%</text><text x="2.004" y="25.551" class="h">boxes</text><text x="8.016" y="25.551" class="h">start</text><text x="14.028" y="25.551" class="h">st</text></svg><svg x="3200"><use xlink:href="#a"/><use xlink:href="#1" y="2.171"/><use xlink:href="#8" y="4.342"/><use xlink:href="#9" y="6.513"/><use xlink:href="#10" y="8.684"/><use xlink:href="#11" y="10.855"/><use xlink:href="#12" y="13.026"/><use xlink:href="#13" y="15.197"/><use xlink:href="#14" y="17.368"/><use xlink:href="#1" y="21.71"/><text y="25.551" class="g">%</text><text x="2.004" y="25.551" class="h">boxes</text><text x="8.016" y="25.551" class="h">start</text><text x="14.028" y="25.551" class="h">ste</text></svg><svg x="3280"><use xlink:href="#a"/><use xlink:href="#1" y="2.171"/><use xlink:href="#8" y="4.342"/><use xlink:href="#9" y="6.513"/><use xlink:href="#10" y="8.684"/><use xlink:href="#11" y="10.855"/><use xlink:href="#12" y="13.026"/><use xlink:href="#13" y="15.197"/><use xlink:href="#14" y="17.368"/><use xlink:href="#1" y="21.71"/><text y="25.551" class="g">%</text><text x="2.004" y="25.551" class="h">boxes</text><text x="8.016" y="25.551" class="h">start</text><text x="14.028" y="25.551" class="h">stea</text></svg><svg x="3360"><use xlink:href="#a"/><use xlink:href="#1" y="2.171"/><use xlink:href="#8" y="4.342"/><use xlink:href="#9" y="6.513"/><use xlink:href="#10" y="8.684"/><use xlink:href="#11" y="10.855"/><use xlink:href="#12" y="13.026"/><use xlink:href="#13" y="15.197"/><use xlink:href="#14" y="17.368"/><use xlink:href="#1" y="21.71"/><text y="25.551" class="g">%</text><text x="2.004" y="25.551" class="h">boxes</text><text x="8.016" y="25.551" class="h">start</text><text x="14.028" y="25.551" class="h">steam</text></svg><svg x="3440"><use xlink:href="#a"/><use xlink:href="#1" y="2.171"/><use xlink:href="#8" y="4.342"/><use xlink:href="#9" y="6.513"/><use xlink:href="#10" y="8.684"/><use xlink:href="#11" y="10.855"/><use xlink:href="#12" y="13.026"/><use xlink:href="#13" y="15.197"/><use xlink:href="#14" y="17.368"/><use xlink:href="#1" y="21.71"/><text y="25.551" class="g">%</text><text x="2.004" y="25.551" class="h">boxes</text><text x="8.016" y="25.551" class="h">start</text><text x="14.028" y="25.551" class="h">steamb</text></svg><svg x="3520"><use xlink:href="#a"/><use xlink:href="#1" y="2.171"/><use xlink:href="#8" y="4.342"/><use xlink:href="#9" y="6.513"/><use xlink:href="#10" y="8.684"/><use xlink:href="#11" y="10.855"/><use xlink:href="#12" y="13.026"/><use xlink:href="#13" y="15.197"/><use xlink:href="#14" y="17.368"/><use xlink:href="#1" y="21.71"/><text y="25.551" class="g">%</text><text x="2.004" y="25.551" class="h">boxes</text><text x="8.016" y="25.551" class="h">start</text><text x="14.028" y="25.551" class="h">steambo</text></svg><svg x="3600"><use xlink:href="#a"/><use xlink:href="#1" y="2.171"/><use xlink:href="#8" y="4.342"/><use xlink:href="#9" y="6.513"/><use xlink:href="#10" y="8.684"/><use xlink:href="#11" y="10.855"/><use xlink:href="#12" y="13.026"/><use xlink:href="#13" y="15.197"/><use xlink:href="#14" y="17.368"/><use xlink:href="#1" y="21.71"/><use xlink:href="#17" y="23.881"/></svg><svg x="3680"><use xlink:href="#a"/><use xlink:href="#1" y="2.171"/><use xlink:href="#8" y="4.342"/><use xlink:href="#9" y="6.513"/><use xlink:href="#10" y="8.684"/><use xlink:href="#11" y="10.855"/><use xlink:href="#12" y="13.026"/><use xlink:href="#13" y="15.197"/><use xlink:href="#14" y="17.368"/><use xlink:href="#1" y="21.71"/><use xlink:href="#17" y="23.881"/></svg><svg x="3760"><use xlink:href="#a"/><use xlink:href="#1" y="2.171"/><use xlink:href="#8" y="4.342"/><use xlink:href="#9" y="6.513"/><use xlink:href="#10" y="8.684"/><use xlink:href="#11" y="10.855"/><use xlink:href="#12" y="13.026"/><use xlink:href="#13" y="15.197"/><use xlink:href="#14" y="17.368"/><use xlink:href="#1" y="21.71"/><use xlink:href="#17" y="23.881"/></svg><svg x="3840"><use xlink:href="#a"/><use xlink:href="#1" y="2.171"/><use xlink:href="#8" y="4.342"/><use xlink:href="#9" y="6.513"/><use xlink:href="#10" y="8.684"/><use xlink:href="#11" y="10.855"/><use xlink:href="#12" y="13.026"/><use xlink:href="#13" y="15.197"/><use xlink:href="#14" y="17.368"/><use xlink:href="#1" y="21.71"/><use xlink:href="#17" y="23.881"/></svg><svg x="3920"><use xlink:href="#a"/><use xlink:href="#1" y="2.171"/><use xlink:href="#8" y="4.342"/><use xlink:href="#9" y="6.513"/><use xlink:href="#10" y="8.684"/><use xlink:href="#11" y="10.855"/><use xlink:href="#12" y="13.026"/><use xlink:href="#13" y="15.197"/><use xlink:href="#14" y="17.368"/><use xlink:href="#1" y="21.71"/><use xlink:href="#17" y="23.881"/><use xlink:href="#18" y="26.052"/></svg><svg x="4000"><use xlink:href="#a"/><use xlink:href="#1" y="2.171"/><use xlink:href="#8" y="4.342"/><use xlink:href="#9" y="6.513"/><use xlink:href="#10" y="8.684"/><use xlink:href="#11" y="10.855"/><use xlink:href="#12" y="13.026"/><use xlink:href="#13" y="15.197"/><use xlink:href="#14" y="17.368"/><use xlink:href="#1" y="21.71"/><use xlink:href="#17" y="23.881"/><use xlink:href="#18" y="26.052"/></svg><svg x="4080"><use xlink:href="#a"/><use xlink:href="#1" y="2.171"/><use xlink:href="#8" y="4.342"/><use xlink:href="#9" y="6.513"/><use xlink:href="#10" y="8.684"/><use xlink:href="#11" y="10.855"/><use xlink:href="#12" y="13.026"/><use xlink:href="#13" y="15.197"/><use xlink:href="#14" y="17.368"/><use xlink:href="#1" y="21.71"/><use xlink:href="#17" y="23.881"/><use xlink:href="#18" y="26.052"/></svg><svg x="4160"><use xlink:href="#a"/><use xlink:href="#1" y="2.171"/><use xlink:href="#8" y="4.342"/><use xlink:href="#9" y="6.513"/><use xlink:href="#10" y="8.684"/><use xlink:href="#11" y="10.855"/><use xlink:href="#12" y="13.026"/><use xlink:href="#13" y="15.197"/><use xlink:href="#14" y="17.368"/><use xlink:href="#1" y="21.71"/><use xlink:href="#17" y="23.881"/><use xlink:href="#18" y="26.052"/></svg><svg x="4240"><use xlink:href="#a"/><use xlink:href="#1"/><use xlink:href="#8" y="2.171"/><use xlink:href="#9" y="4.342"/><use xlink:href="#10" y="6.513"/><use xlink:href="#11" y="8.684"/><use xlink:href="#12" y="10.855"/><use xlink:href="#13" y="13.026"/><use xlink:href="#14" y="15.197"/><use xlink:href="#1" y="19.539"/><use xlink:href="#17" y="21.71"/><use xlink:href="#18" y="23.881"/><use xlink:href="#1" y="28.223"/><use xlink:href="#2" y="30.394"/></svg><svg x="4320"><use xlink:href="#a"/><use xlink:href="#1"/><use xlink:href="#8" y="2.171"/><use xlink:href="#9" y="4.342"/><use xlink:href="#10" y="6.513"/><use xlink:href="#11" y="8.684"/><use xlink:href="#12" y="10.855"/><use xlink:href="#13" y="13.026"/><use xlink:href="#14" y="15.197"/><use xlink:href="#1" y="19.539"/><use xlink:href="#17" y="21.71"/><use xlink:href="#18" y="23.881"/><use xlink:href="#1" y="28.223"/><use xlink:href="#2" y="30.394"/></svg><svg x="4400"><use xlink:href="#a"/><use xlink:href="#1"/><use xlink:href="#8" y="2.171"/><use xlink:href="#9" y="4.342"/><use xlink:href="#10" y="6.513"/><use xlink:href="#11" y="8.684"/><use xlink:href="#12" y="10.855"/><use xlink:href="#13" y="13.026"/><use xlink:href="#14" y="15.197"/><use xlink:href="#1" y="19.539"/><use xlink:href="#17" y="21.71"/><use xlink:href="#18" y="23.881"/><use xlink:href="#1" y="28.223"/><use xlink:href="#2" y="30.394"/></svg><svg x="4480"><use xlink:href="#a"/><use xlink:href="#1"/><use xlink:href="#8" y="2.171"/><use xlink:href="#9" y="4.342"/><use xlink:href="#10" y="6.513"/><use xlink:href="#11" y="8.684"/><use xlink:href="#12" y="10.855"/><use xlink:href="#13" y="13.026"/><use xlink:href="#14" y="15.197"/><use xlink:href="#1" y="19.539"/><use xlink:href="#17" y="21.71"/><use xlink:href="#18" y="23.881"/><use xlink:href="#1" y="28.223"/><use xlink:href="#3" y="30.394"/></svg><svg x="4560"><use xlink:href="#a"/><use xlink:href="#1"/><use xlink:href="#8" y="2.171"/><use xlink:href="#9" y="4.342"/><use xlink:href="#10" y="6.513"/><use xlink:href="#11" y="8.684"/><use xlink:href="#12" y="10.855"/><use xlink:href="#13" y="13.026"/><use xlink:href="#14" y="15.197"/><use xlink:href="#1" y="19.539"/><use xlink:href="#17" y="21.71"/><use xlink:href="#18" y="23.881"/><use xlink:href="#1" y="28.223"/><use xlink:href="#4" y="30.394"/></svg><svg x="4640"><use xlink:href="#a"/><use xlink:href="#1"/><use xlink:href="#8" y="2.171"/><use xlink:href="#9" y="4.342"/><use xlink:href="#10" y="6.513"/><use xlink:href="#11" y="8.684"/><use xlink:href="#12" y="10.855"/><use xlink:href="#13" y="13.026"/><use xlink:href="#14" y="15.197"/><use xlink:href="#1" y="19.539"/><use xlink:href="#17" y="21.71"/><use xlink:href="#18" y="23.881"/><use xlink:href="#1" y="28.223"/><use xlink:href="#5" y="30.394"/></svg><svg x="4720"><use xlink:href="#a"/><use xlink:href="#1"/><use xlink:href="#8" y="2.171"/><use xlink:href="#9" y="4.342"/><use xlink:href="#10" y="6.513"/><use xlink:href="#11" y="8.684"/><use xlink:href="#12" y="10.855"/><use xlink:href="#13" y="13.026"/><use xlink:href="#14" y="15.197"/><use xlink:href="#1" y="19.539"/><use xlink:href="#17" y="21.71"/><use xlink:href="#18" y="23.881"/><use xlink:href="#1" y="28.223"/><use xlink:href="#6" y="30.394"/></svg><svg x="4800"><use xlink:href="#a"/><use xlink:href="#1"/><use xlink:href="#8" y="2.171"/><use xlink:href="#9" y="4.342"/><use xlink:href="#10" y="6.513"/><use xlink:href="#11" y="8.684"/><use xlink:href="#12" y="10.855"/><use xlink:href="#13" y="13.026"/><use xlink:href="#14" y="15.197"/><use xlink:href="#1" y="19.539"/><use xlink:href="#17" y="21.71"/><use xlink:href="#18" y="23.881"/><use xlink:href="#1" y="28.223"/><use xlink:href="#7" y="30.394"/></svg><svg x="4880"><use xlink:href="#a"/><use xlink:href="#1"/><use xlink:href="#8" y="2.171"/><use xlink:href="#9" y="4.342"/><use xlink:href="#10" y="6.513"/><use xlink:href="#11" y="8.684"/><use xlink:href="#12" y="10.855"/><use xlink:href="#13" y="13.026"/><use xlink:href="#14" y="15.197"/><use xlink:href="#1" y="19.539"/><use xlink:href="#17" y="21.71"/><use xlink:href="#18" y="23.881"/><use xlink:href="#1" y="28.223"/><use xlink:href="#7" y="30.394"/></svg><svg x="4960"><use xlink:href="#a"/><use xlink:href="#1"/><use xlink:href="#8" y="2.171"/><use xlink:href="#9" y="4.342"/><use xlink:href="#10" y="6.513"/><use xlink:href="#11" y="8.684"/><use xlink:href="#12" y="10.855"/><use xlink:href="#13" y="13.026"/><use xlink:href="#14" y="15.197"/><use xlink:href="#1" y="19.539"/><use xlink:href="#17" y="21.71"/><use xlink:href="#18" y="23.881"/><use xlink:href="#1" y="28.223"/><use xlink:href="#15" y="30.394"/></svg><svg x="5040"><use xlink:href="#a"/><use xlink:href="#1"/><use xlink:href="#8" y="2.171"/><use xlink:href="#9" y="4.342"/><use xlink:href="#10" y="6.513"/><use xlink:href="#11" y="8.684"/><use xlink:href="#12" y="10.855"/><use xlink:href="#13" y="13.026"/><use xlink:href="#14" y="15.197"/><use xlink:href="#1" y="19.539"/><use xlink:href="#17" y="21.71"/><use xlink:href="#18" y="23.881"/><use xlink:href="#1" y="28.223"/><text y="32.064" class="g">%</text><text x="2.004" y="32.064" class="h">boxes</text><text x="8.016" y="32.064" class="h">ss</text></svg><svg x="5120"><use xlink:href="#a"/><use xlink:href="#1"/><use xlink:href="#8" y="2.171"/><use xlink:href="#9" y="4.342"/><use xlink:href="#10" y="6.513"/><use xlink:href="#11" y="8.684"/><use xlink:href="#12" y="10.855"/><use xlink:href="#13" y="13.026"/><use xlink:href="#14" y="15.197"/><use xlink:href="#1" y="19.539"/><use xlink:href="#17" y="21.71"/><use xlink:href="#18" y="23.881"/><use xlink:href="#1" y="28.223"/><use xlink:href="#19" y="30.394"/></svg><svg x="5200"><use xlink:href="#a"/><use xlink:href="#1"/><use xlink:href="#8" y="2.171"/><use xlink:href="#9" y="4.342"/><use xlink:href="#10" y="6.513"/><use xlink:href="#11" y="8.684"/><use xlink:href="#12" y="10.855"/><use xlink:href="#13" y="13.026"/><use xlink:href="#14" y="15.197"/><use xlink:href="#1" y="19.539"/><use xlink:href="#17" y="21.71"/><use xlink:href="#18" y="23.881"/><use xlink:href="#1" y="28.223"/><use xlink:href="#19" y="30.394"/></svg><svg x="5280"><use xlink:href="#a"/><use xlink:href="#1"/><use xlink:href="#8" y="2.171"/><use xlink:href="#9" y="4.342"/><use xlink:href="#10" y="6.513"/><use xlink:href="#11" y="8.684"/><use xlink:href="#12" y="10.855"/><use xlink:href="#13" y="13.026"/><use xlink:href="#14" y="15.197"/><use xlink:href="#1" y="19.539"/><use xlink:href="#17" y="21.71"/><use xlink:href="#18" y="23.881"/><use xlink:href="#1" y="28.223"/><text y="32.064" class="g">%</text><text x="2.004" y="32.064" class="h">boxes</text><text x="8.016" y="32.064" class="h">ssh</text><text x="12.024" y="32.064" class="h">t</text></svg><svg x="5360"><use xlink:href="#a"/><use xlink:href="#1"/><use xlink:href="#8" y="2.171"/><use xlink:href="#9" y="4.342"/><use xlink:href="#10" y="6.513"/><use xlink:href="#11" y="8.684"/><use xlink:href="#12" y="10.855"/><use xlink:href="#13" y="13.026"/><use xlink:href="#14" y="15.197"/><use xlink:href="#1" y="19.539"/><use xlink:href="#17" y="21.71"/><use xlink:href="#18" y="23.881"/><use xlink:href="#1" y="28.223"/><text y="32.064" class="g">%</text><text x="2.004" y="32.064" class="h">boxes</text><text x="8.016" y="32.064" class="h">ssh</text><text x="12.024" y="32.064" class="h">to</text></svg><svg x="5440"><use xlink:href="#a"/><use xlink:href="#1"/><use xlink:href="#8" y="2.171"/><use xlink:href="#9" y="4.342"/><use xlink:href="#10" y="6.513"/><use xlink:href="#11" y="8.684"/><use xlink:href="#12" y="10.855"/><use xlink:href="#13" y="13.026"/><use xlink:href="#14" y="15.197"/><use xlink:href="#1" y="19.539"/><use xlink:href="#17" y="21.71"/><use xlink:href="#18" y="23.881"/><use xlink:href="#1" y="28.223"/><text y="32.064" class="g">%</text><text x="2.004" y="32.064" class="h">boxes</text><text x="8.016" y="32.064" class="h">ssh</text><text x="12.024" y="32.064" class="h">tor</text></svg><svg x="5520"><use xlink:href="#a"/><use xlink:href="#1"/><use xlink:href="#8" y="2.171"/><use xlink:href="#9" y="4.342"/><use xlink:href="#10" y="6.513"/><use xlink:href="#11" y="8.684"/><use xlink:href="#12" y="10.855"/><use xlink:href="#13" y="13.026"/><use xlink:href="#14" y="15.197"/><use xlink:href="#1" y="19.539"/><use xlink:href="#17" y="21.71"/><use xlink:href="#18" y="23.881"/><use xlink:href="#1" y="28.223"/><text y="32.064" class="g">%</text><text x="2.004" y="32.064" class="h">boxes</text><text x="8.016" y="32.064" class="h">ssh</text><text x="12.024" y="32.064" class="h">torr</text></svg><svg x="5600"><use xlink:href="#a"/><use xlink:href="#1"/><use xlink:href="#8" y="2.171"/><use xlink:href="#9" y="4.342"/><use xlink:href="#10" y="6.513"/><use xlink:href="#11" y="8.684"/><use xlink:href="#12" y="10.855"/><use xlink:href="#13" y="13.026"/><use xlink:href="#14" y="15.197"/><use xlink:href="#1" y="19.539"/><use xlink:href="#17" y="21.71"/><use xlink:href="#18" y="23.881"/><use xlink:href="#1" y="28.223"/><text y="32.064" class="g">%</text><text x="2.004" y="32.064" class="h">boxes</text><text x="8.016" y="32.064" class="h">ssh</text><text x="12.024" y="32.064" class="h">torre</text></svg><svg x="5680"><use xlink:href="#a"/><use xlink:href="#1"/><use xlink:href="#8" y="2.171"/><use xlink:href="#9" y="4.342"/><use xlink:href="#10" y="6.513"/><use xlink:href="#11" y="8.684"/><use xlink:href="#12" y="10.855"/><use xlink:href="#13" y="13.026"/><use xlink:href="#14" y="15.197"/><use xlink:href="#1" y="19.539"/><use xlink:href="#17" y="21.71"/><use xlink:href="#18" y="23.881"/><use xlink:href="#1" y="28.223"/><text y="32.064" class="g">%</text><text x="2.004" y="32.064" class="h">boxes</text><text x="8.016" y="32.064" class="h">ssh</text><text x="12.024" y="32.064" class="h">torren</text></svg><svg x="5760"><use xlink:href="#a"/><use xlink:href="#1"/><use xlink:href="#8" y="2.171"/><use xlink:href="#9" y="4.342"/><use xlink:href="#10" y="6.513"/><use xlink:href="#11" y="8.684"/><use xlink:href="#12" y="10.855"/><use xlink:href="#13" y="13.026"/><use xlink:href="#14" y="15.197"/><use xlink:href="#1" y="19.539"/><use xlink:href="#17" y="21.71"/><use xlink:href="#18" y="23.881"/><use xlink:href="#1" y="28.223"/><text y="32.064" class="g">%</text><text x="2.004" y="32.064" class="h">boxes</text><text x="8.016" y="32.064" class="h">ssh</text><text x="12.024" y="32.064" class="h">torrent</text></svg><svg x="5840"><use xlink:href="#a"/><use xlink:href="#1"/><use xlink:href="#8" y="2.171"/><use xlink:href="#9" y="4.342"/><use xlink:href="#10" y="6.513"/><use xlink:href="#11" y="8.684"/><use xlink:href="#12" y="10.855"/><use xlink:href="#13" y="13.026"/><use xlink:href="#14" y="15.197"/><use xlink:href="#1" y="19.539"/><use xlink:href="#17" y="21.71"/><use xlink:href="#18" y="23.881"/><use xlink:href="#1" y="28.223"/><text y="32.064" class="g">%</text><text x="2.004" y="32.064" class="h">boxes</text><text x="8.016" y="32.064" class="h">ssh</text><text x="12.024" y="32.064" class="h">torrentb</text></svg><svg x="5920"><use xlink:href="#a"/><use xlink:href="#1"/><use xlink:href="#8" y="2.171"/><use xlink:href="#9" y="4.342"/><use xlink:href="#10" y="6.513"/><use xlink:href="#11" y="8.684"/><use xlink:href="#12" y="10.855"/><use xlink:href="#13" y="13.026"/><use xlink:href="#14" y="15.197"/><use xlink:href="#1" y="19.539"/><use xlink:href="#17" y="21.71"/><use xlink:href="#18" y="23.881"/><use xlink:href="#1" y="28.223"/><text y="32.064" class="g">%</text><text x="2.004" y="32.064" class="h">boxes</text><text x="8.016" y="32.064" class="h">ssh</text><text x="12.024" y="32.064" class="h">torrentbo</text></svg><svg x="6000"><use xlink:href="#a"/><use xlink:href="#1"/><use xlink:href="#8" y="2.171"/><use xlink:href="#9" y="4.342"/><use xlink:href="#10" y="6.513"/><use xlink:href="#11" y="8.684"/><use xlink:href="#12" y="10.855"/><use xlink:href="#13" y="13.026"/><use xlink:href="#14" y="15.197"/><use xlink:href="#1" y="19.539"/><use xlink:href="#17" y="21.71"/><use xlink:href="#18" y="23.881"/><use xlink:href="#1" y="28.223"/><use xlink:href="#20" y="30.394"/></svg><svg x="6080"><use xlink:href="#a"/><use xlink:href="#1"/><use xlink:href="#8" y="2.171"/><use xlink:href="#9" y="4.342"/><use xlink:href="#10" y="6.513"/><use xlink:href="#11" y="8.684"/><use xlink:href="#12" y="10.855"/><use xlink:href="#13" y="13.026"/><use xlink:href="#14" y="15.197"/><use xlink:href="#1" y="19.539"/><use xlink:href="#17" y="21.71"/><use xlink:href="#18" y="23.881"/><use xlink:href="#1" y="28.223"/><use xlink:href="#20" y="30.394"/></svg><svg x="6160"><use xlink:href="#a"/><use xlink:href="#8"/><use xlink:href="#9" y="2.171"/><use xlink:href="#10" y="4.342"/><use xlink:href="#11" y="6.513"/><use xlink:href="#12" y="8.684"/><use xlink:href="#13" y="10.855"/><use xlink:href="#14" y="13.026"/><use xlink:href="#1" y="17.368"/><use xlink:href="#17" y="19.539"/><use xlink:href="#18" y="21.71"/><use xlink:href="#1" y="26.052"/><use xlink:href="#20" y="28.223"/></svg><svg x="6240"><use xlink:href="#a"/><use xlink:href="#8"/><use xlink:href="#9" y="2.171"/><use xlink:href="#10" y="4.342"/><use xlink:href="#11" y="6.513"/><use xlink:href="#12" y="8.684"/><use xlink:href="#13" y="10.855"/><use xlink:href="#14" y="13.026"/><use xlink:href="#1" y="17.368"/><use xlink:href="#17" y="19.539"/><use xlink:href="#18" y="21.71"/><use xlink:href="#1" y="26.052"/><use xlink:href="#20" y="28.223"/></svg><svg x="6320"><use xlink:href="#a"/><use xlink:href="#10"/><use xlink:href="#11" y="2.171"/><use xlink:href="#12" y="4.342"/><use xlink:href="#13" y="6.513"/><use xlink:href="#14" y="8.684"/><use xlink:href="#1" y="13.026"/><use xlink:href="#17" y="15.197"/><use xlink:href="#18" y="17.368"/><use xlink:href="#1" y="21.71"/><use xlink:href="#20" y="23.881"/><use xlink:href="#21" y="26.052"/><use xlink:href="#22" y="28.223"/></svg><svg x="6400"><use xlink:href="#a"/><use xlink:href="#10"/><use xlink:href="#11" y="2.171"/><use xlink:href="#12" y="4.342"/><use xlink:href="#13" y="6.513"/><use xlink:href="#14" y="8.684"/><use xlink:href="#1" y="13.026"/><use xlink:href="#17" y="15.197"/><use xlink:href="#18" y="17.368"/><use xlink:href="#1" y="21.71"/><use xlink:href="#20" y="23.881"/><use xlink:href="#21" y="26.052"/><use xlink:href="#22" y="28.223"/></svg><svg x="6480"><use xlink:href="#a"/><use xlink:href="#10"/><use xlink:href="#11" y="2.171"/><use xlink:href="#12" y="4.342"/><use xlink:href="#13" y="6.513"/><use xlink:href="#14" y="8.684"/><use xlink:href="#1" y="13.026"/><use xlink:href="#17" y="15.197"/><use xlink:href="#18" y="17.368"/><use xlink:href="#1" y="21.71"/><use xlink:href="#20" y="23.881"/><use xlink:href="#21" y="26.052"/><use xlink:href="#22" y="28.223"/></svg><svg x="6560"><use xlink:href="#a"/><use xlink:href="#10"/><use xlink:href="#11" y="2.171"/><use xlink:href="#12" y="4.342"/><use xlink:href="#13" y="6.513"/><use xlink:href="#14" y="8.684"/><use xlink:href="#1" y="13.026"/><use xlink:href="#17" y="15.197"/><use xlink:href="#18" y="17.368"/><use xlink:href="#1" y="21.71"/><use xlink:href="#20" y="23.881"/><use xlink:href="#21" y="26.052"/><use xlink:href="#22" y="28.223"/></svg><svg x="6640"><use xlink:href="#a"/><use xlink:href="#12"/><use xlink:href="#13" y="2.171"/><use xlink:href="#14" y="4.342"/><use xlink:href="#1" y="8.684"/><use xlink:href="#17" y="10.855"/><use xlink:href="#18" y="13.026"/><use xlink:href="#1" y="17.368"/><use xlink:href="#20" y="19.539"/><use xlink:href="#21" y="21.71"/><use xlink:href="#22" y="23.881"/><use xlink:href="#1" y="28.223"/><use xlink:href="#2" y="30.394"/></svg><svg x="6720"><use xlink:href="#a"/><use xlink:href="#12"/><use xlink:href="#13" y="2.171"/><use xlink:href="#14" y="4.342"/><use xlink:href="#1" y="8.684"/><use xlink:href="#17" y="10.855"/><use xlink:href="#18" y="13.026"/><use xlink:href="#1" y="17.368"/><use xlink:href="#20" y="19.539"/><use xlink:href="#21" y="21.71"/><use xlink:href="#22" y="23.881"/><use xlink:href="#1" y="28.223"/><use xlink:href="#2" y="30.394"/></svg><svg x="6800"><use xlink:href="#a"/><use xlink:href="#12"/><use xlink:href="#13" y="2.171"/><use xlink:href="#14" y="4.342"/><use xlink:href="#1" y="8.684"/><use xlink:href="#17" y="10.855"/><use xlink:href="#18" y="13.026"/><use xlink:href="#1" y="17.368"/><use xlink:href="#20" y="19.539"/><use xlink:href="#21" y="21.71"/><use xlink:href="#22" y="23.881"/><use xlink:href="#1" y="28.223"/><use xlink:href="#2" y="30.394"/></svg><svg x="6880"><use xlink:href="#a"/><use xlink:href="#13"/><use xlink:href="#14" y="2.171"/><use xlink:href="#1" y="6.513"/><use xlink:href="#17" y="8.684"/><use xlink:href="#18" y="10.855"/><use xlink:href="#1" y="15.197"/><use xlink:href="#20" y="17.368"/><use xlink:href="#21" y="19.539"/><use xlink:href="#22" y="21.71"/><use xlink:href="#1" y="26.052"/><use xlink:href="#2" y="28.223"/></svg></svg></g></g></svg></svg>